<?xml version="1.0" standalone="no"?>
<!DOCTYPE svg PUBLIC "-//W3C//DTD SVG 20010904//EN"
 "http://www.w3.org/TR/2001/REC-SVG-20010904/DTD/svg10.dtd">
<svg version="1.0" xmlns="http://www.w3.org/2000/svg"
 width="512.000000pt" height="512.000000pt" viewBox="0 0 512.000000 512.000000"
 preserveAspectRatio="xMidYMid meet">

<g transform="translate(0.000000,512.000000) scale(0.100000,-0.100000)"
fill="#000000" stroke="none">
<path d="M2511 5106 c-43 -24 -50 -52 -51 -193 0 -145 8 -176 51 -199 52 -27
115 -8 137 41 7 16 12 76 12 155 0 79 -5 139 -12 155 -22 48 -88 68 -137 41z"/>
<path d="M1583 4858 c-40 -10 -73 -51 -73 -90 0 -34 121 -251 153 -273 37 -26
94 -19 128 14 45 45 39 76 -37 207 -36 62 -71 117 -77 123 -25 20 -62 28 -94
19z"/>
<path d="M3468 4852 c-24 -13 -49 -45 -100 -132 -79 -134 -84 -165 -39 -211
34 -33 91 -40 128 -14 30 21 144 223 150 266 10 70 -72 124 -139 91z"/>
<path d="M2385 4489 c-171 -23 -372 -89 -428 -139 -38 -34 -42 -85 -10 -127
34 -47 71 -50 161 -15 104 41 212 70 289 78 l63 7 0 -1497 0 -1496 -144 0
-143 0 -7 58 c-10 86 -77 276 -146 414 -74 147 -170 301 -341 549 -71 102
-147 222 -169 265 -155 302 -169 654 -39 983 26 66 30 87 23 113 -20 67 -109
95 -158 49 -32 -30 -81 -148 -111 -265 -76 -301 -54 -600 66 -885 47 -110 84
-172 304 -498 228 -338 354 -595 370 -756 6 -50 5 -53 -26 -72 -63 -39 -74
-77 -77 -287 -4 -217 3 -253 58 -308 l38 -38 4 -199 c3 -176 5 -203 24 -244
31 -66 78 -114 142 -146 l57 -28 375 0 375 0 57 28 c64 32 111 80 142 146 19
41 21 68 24 244 l4 199 38 38 c21 21 43 56 49 77 15 54 14 375 -1 427 -8 25
-30 58 -57 84 -41 40 -43 45 -38 85 8 57 51 192 87 272 24 53 36 68 70 85 121
62 210 222 210 378 0 47 1 48 46 70 97 47 188 158 219 266 26 88 18 223 -18
299 l-26 58 53 54 c208 212 190 551 -43 785 l-74 74 2 61 c2 72 -20 161 -55
221 -76 129 -238 224 -384 224 -44 0 -47 2 -59 38 -45 124 -176 217 -365 258
-86 19 -335 26 -431 13z m453 -231 c40 -12 78 -33 104 -56 63 -57 63 -67 -1
-131 -66 -67 -115 -158 -116 -218 0 -51 32 -90 82 -99 56 -11 90 11 125 80 17
34 38 69 47 80 51 57 176 75 258 35 100 -48 153 -152 130 -254 -25 -115 -14
-142 78 -194 125 -70 204 -237 183 -380 -15 -93 -64 -161 -166 -227 -86 -56
-92 -99 -27 -198 85 -130 86 -226 4 -320 -93 -106 -316 -130 -397 -43 -11 12
-30 46 -41 75 -33 84 -59 130 -98 173 -69 76 -130 89 -185 40 -28 -25 -33 -36
-33 -75 0 -40 5 -50 42 -88 28 -29 54 -72 78 -129 41 -98 87 -157 151 -195 59
-35 155 -64 210 -64 l44 0 0 -37 c0 -113 -124 -212 -230 -183 -22 6 -54 26
-72 44 -58 59 -95 69 -149 40 -37 -19 -61 -71 -53 -113 11 -53 155 -171 209
-171 20 0 20 2 -14 -95 -23 -64 -61 -221 -61 -251 0 -2 -63 -4 -140 -4 l-140
0 0 814 0 814 67 7 c135 14 245 64 312 140 16 19 53 74 81 122 29 48 74 109
101 134 39 36 49 52 49 77 0 66 -44 112 -108 112 -35 0 -111 -49 -145 -93 -14
-18 -48 -72 -76 -120 -70 -118 -112 -148 -224 -162 l-57 -7 0 577 0 577 57 -7
c32 -4 86 -16 121 -27z m222 -3308 l0 -150 -500 0 -500 0 0 150 0 150 500 0
500 0 0 -150z m-102 -520 l-3 -170 -28 -27 -27 -28 -340 0 -340 0 -27 28 -28
27 -3 170 -3 170 401 0 401 0 -3 -170z"/>
<path d="M855 4148 c-37 -33 -47 -79 -27 -120 13 -24 45 -49 132 -100 134 -79
165 -84 211 -39 33 34 40 91 14 128 -23 33 -237 153 -273 153 -18 0 -42 -10
-57 -22z"/>
<path d="M4065 4105 c-60 -35 -118 -74 -127 -86 -29 -35 -23 -95 11 -130 46
-45 77 -40 211 39 87 51 119 76 132 100 20 41 10 87 -27 120 -42 36 -78 28
-200 -43z"/>
<path d="M1586 4094 c-50 -51 -28 -142 39 -164 76 -25 150 49 125 125 -22 67
-113 89 -164 39z"/>
<path d="M611 3206 c-47 -26 -63 -84 -37 -135 23 -43 54 -51 196 -51 142 0
173 8 196 51 27 52 8 115 -41 137 -37 17 -282 15 -314 -2z"/>
<path d="M4191 3206 c-47 -26 -63 -84 -37 -135 23 -43 54 -51 196 -51 142 0
173 8 196 51 27 52 8 115 -41 137 -37 17 -282 15 -314 -2z"/>
<path d="M960 2312 c-129 -75 -156 -107 -139 -165 11 -42 53 -77 90 -77 35 0
251 121 274 153 26 37 19 94 -14 128 -45 45 -77 39 -211 -39z"/>
<path d="M3949 2351 c-33 -34 -40 -91 -14 -128 23 -32 239 -153 274 -153 37 0
79 35 90 77 17 58 -10 89 -139 165 -134 79 -165 84 -211 39z"/>
</g>
</svg>
